# xmcd
#
# Track frame offsets:
#	150
#	26295
#	53213
#	71560
#	85665
#	110160
#	130630
#	167610
#	190953
#	214665
#	242730
#	261400
#	297518
#
# Disc length: 4197 seconds
#
# Revision: 1
# Processed by: cddbd v1.5.1PL0 Copyright (c) Steve Scherf et al.
# Submitted via: CDex 1.50Beta5
#
DISCID=bc10630d
DTITLE=BOBBY O - HI-NRG’80s SPECIAL BEST
DYEAR=1900
DGENRE=Other
TTITLE0=DIGITAL EMOTION/GET UP,ACTION
TTITLE1=LIAN ROSS/DO YOU WANNA FUNK
TTITLE2=TONI BASIL/MICKEY
TTITLE3=BLACK LACE/AGADO
TTITLE4=D.D.SOUND/CAFE
TTITLE5=SHE HAS A WAY
TTITLE6=MIQUEL BROWN/SO MANY MEN,SO LITTLE TIME
TTITLE7=POSION NO.9/LAY ALL YOUR LOVE ON ME
TTITLE8=LE GEAR/CRASHIN’DOWN
TTITLE9=DAVID LYME/BYE,BYE MI AMOR
TTITLE10=P.4.F./NOTORIOUS MEDLEY WITH LE FREAK
TTITLE11=ASTAIRE/TURN ME ON AGAIN
TTITLE12=ART ATTACK/MANDOLAY
EXTD=
EXTT0=
EXTT1=
EXTT2=
EXTT3=
EXTT4=
EXTT5=
EXTT6=
EXTT7=
EXTT8=
EXTT9=
EXTT10=
EXTT11=
EXTT12=
PLAYORDER=
